<?xml version="1.0"?>
<svg xmlns="http://www.w3.org/2000/svg" xmlns:xlink="http://www.w3.org/1999/xlink" version="1.1" id="Capa_1" x="0px" y="0px" viewBox="0 0 512.002 512.002" style="enable-background:new 0 0 512.002 512.002;" xml:space="preserve" width="512px" height="512px" class=""><g><path d="M485.322,376.581c-11.435-20.93-26.428-40.249-44.131-57.008l57.029-4.649c6.522-0.531,11.947-5.23,13.404-11.609  c1.458-6.38-1.389-12.968-7.033-16.279c0,0-125.056-73.328-125.254-73.433c0.377-3.93,0.577-7.911,0.577-11.938v-39.221h30.087  c8.284,0,15-6.716,15-15s-6.716-15-15-15H383.73c-1.086-4.536-18.597-82.064-39.537-103.005  c-12.07-12.069-24.35-12.399-32.521-10.551c-8.827,1.995-16.606,7.23-24.129,12.293c-10.077,6.781-19.596,13.188-31.499,13.188  c-11.645,0-20.892-6.44-30.683-13.26c-7.538-5.25-15.333-10.68-24.376-12.705c-11.971-2.682-23.111,1.03-33.113,11.033  c-23.583,23.583-39.514,100.847-39.965,103.007h-25.906c-8.284,0-15,6.716-15,15s6.716,15,15,15h30.087v39.221  c0,4.027,0.2,8.008,0.577,11.938c-0.198,0.105-125.254,73.433-125.254,73.433c-5.645,3.312-8.491,9.899-7.033,16.279  c1.457,6.379,6.882,11.078,13.404,11.609l57.011,4.648C25.87,362.011,0.3,419.217,0.002,479.37  c-0.041,8.284,6.642,15.033,14.926,15.074c0.025,0,0.05,0,0.076,0c8.248,0,14.957-6.667,14.998-14.926  c0.258-52.216,22.717-101.982,62.163-138.879l-2.742,39.72c-0.376,5.445,2.235,10.665,6.818,13.629  c0,0,151.614,98.051,151.614,98.051c2.401,1.554,5.267,2.396,8.124,2.4c2.871,0.004,5.755-0.838,8.167-2.4l151.614-98.051  c4.583-2.964,7.194-8.184,6.818-13.629l-2.745-39.759c39.545,36.81,61.905,86.145,62.167,138.917  c0.041,8.259,6.749,14.926,14.998,14.926c0.025,0,0.051,0,0.076,0c8.284-0.041,14.967-6.79,14.926-15.074  C511.821,443.237,502.845,408.654,485.322,376.581z M256.001,443.589l-62.04-134.697c18.256,10.603,39.451,16.683,62.04,16.683  s43.784-6.08,62.04-16.683L256.001,443.589z M349.914,162.443v39.221c0,51.783-42.129,93.912-93.913,93.912  s-93.913-42.129-93.913-93.912v-39.221H349.914z M158.656,131.905c6.188-30.012,13.2-64.027,30.429-81.256  c4.402-4.403,4.862-4.861,19.131,5.077c11.296,7.867,26.766,18.642,47.828,18.642c21.059,0,36.774-10.576,48.249-18.299  c5.232-3.521,14.375-10.893,18.688-5.418c12.954,16.444,29.366,79.294,29.938,81.792H158.546  C158.583,132.264,158.619,132.084,158.656,131.905z M119.96,373.601l4.481-64.893c0.566-8.192-5.561-15.316-13.745-15.983  l-47.142-3.844l69.408-40.714l87.799,190.624L119.96,373.601z M291.24,438.792l87.799-190.624l69.408,40.714l-47.142,3.844  c-8.185,0.667-14.312,7.791-13.745,15.983l4.481,64.893L291.24,438.792z" data-original="#000000" class="active-path" data-old_color="#000000" fill="#FFFFFF"/></g> </svg>
